<?xml version="1.0" encoding="UTF-8" standalone="no"?>
<!-- Created with Inkscape (http://www.inkscape.org/) -->

<svg
   width="180"
   height="180"
   viewBox="0 0 180 180"
   version="1.1"
   id="svg1"
   inkscape:version="1.3 (0e150ed6c4, 2023-07-21)"
   sodipodi:docname="closeBlack.svg"
   xmlns:inkscape="http://www.inkscape.org/namespaces/inkscape"
   xmlns:sodipodi="http://sodipodi.sourceforge.net/DTD/sodipodi-0.dtd"
   xmlns="http://www.w3.org/2000/svg"
   xmlns:svg="http://www.w3.org/2000/svg">
  <sodipodi:namedview
     id="namedview1"
     pagecolor="#ffffff"
     bordercolor="#000000"
     borderopacity="0.25"
     inkscape:showpageshadow="2"
     inkscape:pageopacity="0.0"
     inkscape:pagecheckerboard="true"
     inkscape:deskcolor="#d1d1d1"
     inkscape:document-units="px"
     inkscape:zoom="3.3980409"
     inkscape:cx="97.261925"
     inkscape:cy="80.193266"
     inkscape:window-width="1920"
     inkscape:window-height="1121"
     inkscape:window-x="-9"
     inkscape:window-y="-9"
     inkscape:window-maximized="1"
     inkscape:current-layer="layer1" />
  <defs
     id="defs1" />
  <g
     inkscape:label="Ebene 1"
     id="layer1">
    <rect
       style="fill:#333333;stroke:#333333;stroke-width:3.29936;stroke-opacity:0;fill-opacity:1"
       id="rect2"
       width="8.1597624"
       height="191.95766"
       x="-6.7812634"
       y="33.326916"
       ry="38.513805"
       rx="0"
       transform="matrix(0.73196368,-0.68134365,0.7174671,0.6965924,0,0)"
       inkscape:transform-center-x="-3.9096797"
       inkscape:transform-center-y="1.7840535" />
    <rect
       style="fill:#333333;stroke:#333333;stroke-width:3.32301;stroke-opacity:0;fill-opacity:1"
       id="rect1-2"
       width="8.28825"
       height="191.70294"
       x="126.14906"
       y="-111.05466"
       ry="38.462688"
       rx="0"
       transform="matrix(0.61421089,0.78914193,-0.72423206,0.68955633,0,0)"
       inkscape:transform-center-x="1.5210159"
       inkscape:transform-center-y="2.357154" />
    <path
       style="fill:#333333;fill-opacity:1;stroke:#333333;stroke-width:1.09249;stroke-opacity:0"
       d="m 24.190751,153.23194 c 0,-0.17262 3.044421,-3.94922 4.883956,-6.05853 4.013403,-4.60199 9.739471,-10.57642 15.226736,-15.88722 C 46.48825,129.16972 56.599856,119.51604 66.771676,109.8336 76.943497,100.15115 85.261964,92.195793 85.257159,92.155034 85.252354,92.114274 76.797098,83.887283 66.467701,73.872832 46.974357,54.973845 40.550185,48.659064 37.04178,44.947977 c -7.90208,-8.358585 -13.252057,-14.894875 -14.733068,-18 -0.480263,-1.006931 -0.580376,-1.482421 -0.371682,-1.765319 1.168268,-1.583665 12.091741,6.628816 25.664126,19.294792 2.238346,2.088862 2.915105,2.743595 25.372977,24.54719 l 18.141763,17.61323 0.378468,-0.358464 c 0.208158,-0.197155 8.712576,-8.286965 18.898696,-17.977356 21.94323,-20.875301 21.88941,-20.824202 23.6185,-22.424265 11.28537,-10.443245 21.55632,-18.45793 25.12445,-19.605234 1.11115,-0.357284 1.48314,-0.142601 1.31412,0.758402 -0.47021,2.506367 -7.15804,10.678904 -16.65972,20.358162 -4.60704,4.693147 -6.64112,6.654432 -27.29006,26.31347 C 105.7819,83.907194 97.026405,92.29427 97.0437,92.340532 c 0.01729,0.04626 8.38896,8.193418 18.6037,18.104798 25.58807,24.82815 28.85245,28.10175 35.12267,35.22201 2.56677,2.91473 6.18369,7.35166 6.18369,7.58562 0,0.0325 -1.54311,0.0592 -3.42914,0.0592 h -3.42912 l -1.33099,-1.06021 c -3.61916,-2.88288 -8.33011,-6.95833 -12.77607,-11.05261 -3.01828,-2.77953 -7.82298,-7.4106 -25.89775,-24.96189 l -18.926641,-18.3785 -0.477978,0.438406 c -0.262888,0.241123 -9.186649,8.727864 -19.83058,18.859434 -10.64393,10.13157 -20.078323,19.1032 -20.965318,19.93696 -6.041401,5.67884 -12.439107,11.23011 -17.355364,15.05921 l -1.488313,1.1592 h -3.427872 c -1.88533,0 -3.427873,-0.0361 -3.427873,-0.0802 z"
       id="path1" />
    <path
       style="fill:#333333;fill-opacity:1;stroke:#333333;stroke-width:1.09249;stroke-opacity:0"
       d="m 24.190751,153.22959 c 0,-0.10503 2.262732,-2.98711 3.366053,-4.28739 2.825889,-3.33038 5.286893,-6.02923 9.473128,-10.38868 4.133403,-4.30442 6.046599,-6.15272 28.839195,-27.86096 L 85.288083,92.197468 83.534215,90.468779 C 82.569588,89.518 75.319075,82.470778 67.421965,74.808287 42.477579,50.604983 39.916775,48.073062 34.639822,42.395888 26.60855,33.755499 21.389019,26.786773 21.853226,25.324184 c 0.484207,-1.525601 6.511498,2.348682 15.428387,9.917216 3.824449,3.24614 9.493288,8.378292 13.024745,11.791651 4.822301,4.661034 14.586733,14.127416 20.757226,20.123632 3.808415,3.700852 5.455364,5.300919 7.180666,6.976265 0.972375,0.94422 2.611705,2.536127 3.642957,3.537572 1.031251,1.001445 2.670645,2.593353 3.643097,3.537573 0.972452,0.944219 2.623138,2.553325 3.668191,3.575789 l 1.900096,1.859026 0.595213,-0.556751 c 0.587077,-0.54914 18.052486,-17.167913 30.716096,-29.227141 10.40927,-9.912468 12.32754,-11.70772 16.12767,-15.093412 10.86329,-9.678541 19.74901,-16.121251 21.59521,-15.657887 0.74448,0.186854 0.29278,1.631746 -1.21419,3.88393 -3.03927,4.542215 -9.27596,11.590665 -17.77986,20.094046 -1.68815,1.688048 -10.42023,10.070485 -19.40463,18.627638 -8.98439,8.557152 -16.38571,15.606556 -16.44738,15.665339 -6.17503,5.886271 -8.264306,7.905284 -8.240745,7.963609 0.01604,0.03971 5.881775,5.750596 13.034945,12.690851 7.15318,6.94025 13.77833,13.3757 14.72255,14.30099 0.94422,0.92528 4.08121,3.97986 6.9711,6.78795 10.38227,10.08841 16.5227,16.50349 21.56573,22.53036 1.6485,1.97009 3.61041,4.4585 3.61227,4.58167 6.6e-4,0.0429 -1.54668,0.078 -3.43852,0.078 h -3.4397 l -2.09465,-1.69075 c -5.38154,-4.34385 -12.1397,-10.39678 -18.49415,-16.56424 -0.77254,-0.74981 -6.13353,-5.94825 -11.9133,-11.5521 -5.77976,-5.60384 -11.32796,-10.98698 -12.32933,-11.96254 -1.00136,-0.97555 -2.61668,-2.54703 -3.58959,-3.49218 -0.97292,-0.94515 -2.54148,-2.47172 -3.4857,-3.39237 -0.94422,-0.92066 -2.90948,-2.82745 -4.367245,-4.23733 l -2.650483,-2.56341 -0.470904,0.451384 c -0.258999,0.248262 -4.872062,4.636526 -10.251252,9.751706 -20.553212,19.54443 -22.711265,21.59772 -23.722544,22.57091 -10.045149,9.66686 -17.700217,16.48324 -24.157009,21.5104 l -1.503395,1.17052 h -3.427024 c -1.884862,0 -3.427023,-0.0371 -3.427023,-0.0825 z"
       id="path2" />
  </g>
</svg>
